<?xml version="1.0" encoding="iso-8859-1"?>
<!-- Generator: Adobe Illustrator 17.1.0, SVG Export Plug-In . SVG Version: 6.00 Build 0)  -->
<!DOCTYPE svg PUBLIC "-//W3C//DTD SVG 1.1//EN" "http://www.w3.org/Graphics/SVG/1.1/DTD/svg11.dtd">
<svg version="1.1" id="Capa_1" xmlns="http://www.w3.org/2000/svg" xmlns:xlink="http://www.w3.org/1999/xlink" x="0px" y="0px"
	 viewBox="0 0 476.548 476.548" style="enable-background:new 0 0 476.548 476.548;" xml:space="preserve">
<g>
	<path d="M342.083,103.896L306.59,68.403c-1.508-1.509-3.517-2.34-5.656-2.34c-2.138,0-4.146,0.831-5.656,2.34l-71.819,71.818
		c-1.509,1.509-2.339,3.518-2.339,5.657c0,2.139,0.831,4.147,2.339,5.656l0.247,0.247L2.476,361.32
		c-1.567,1.485-2.447,3.489-2.476,5.643c-0.029,2.154,0.796,4.181,2.322,5.707l35.494,35.495c1.498,1.497,3.486,2.321,5.599,2.321
		c2.164,0,4.259-0.903,5.75-2.478L258.704,186.78l0.247,0.247c1.509,1.509,3.518,2.34,5.656,2.34c2.14,0,4.148-0.831,5.657-2.34
		l71.82-71.819C345.2,112.089,345.2,107.015,342.083,103.896z"/>
	<path d="M476.445,179.862c-0.396-2.261-1.891-4.15-4.099-5.186l-109.975-51.514c-1.149-0.539-2.468-0.823-3.813-0.823
		c-2.555,0-4.99,0.971-6.683,2.664l-71.82,71.819c-2.665,2.668-3.439,7.081-1.84,10.493l51.515,109.972
		c1.213,2.593,3.647,4.204,6.352,4.204c1.881,0,3.694-0.778,5.106-2.191l133.169-133.167
		C476.082,184.409,476.843,182.122,476.445,179.862z"/>
</g>
<g>
</g>
<g>
</g>
<g>
</g>
<g>
</g>
<g>
</g>
<g>
</g>
<g>
</g>
<g>
</g>
<g>
</g>
<g>
</g>
<g>
</g>
<g>
</g>
<g>
</g>
<g>
</g>
<g>
</g>
</svg>
