<?xml version="1.0" encoding="iso-8859-1"?>
<!-- Generator: Adobe Illustrator 16.0.0, SVG Export Plug-In . SVG Version: 6.00 Build 0)  -->
<!DOCTYPE svg PUBLIC "-//W3C//DTD SVG 1.1//EN" "http://www.w3.org/Graphics/SVG/1.1/DTD/svg11.dtd">
<svg version="1.1" id="Capa_1" xmlns="http://www.w3.org/2000/svg" xmlns:xlink="http://www.w3.org/1999/xlink" x="0px" y="0px"
	 width="229.175px" height="229.175px" viewBox="0 0 229.175 229.175" style="enable-background:new 0 0 229.175 229.175;"
	 xml:space="preserve">
<g>
	<path d="M203.257,16.575C188.335,5.577,168.177,0,143.34,0c-23.902,0-51.161,5.406-74.787,14.834
		C31.32,29.691,24.417,43.295,24.157,43.749c-0.797,1.388-1.113,2.16-0.452,3.188c0.281,0.435,28.188,43.705,40.69,62.168
		c4.296,6.344,16.366,23.861,30.344,44.143c19.57,28.396,41.751,60.584,51.379,74.844c0.459,0.68,1.223,1.083,2.038,1.083h24.402
		c0.004,0,0.008,0,0.01,0c1.359,0,2.462-1.101,2.462-2.46c0-0.572-0.195-1.1-0.524-1.518L72.833,70.729
		c30.419-35.869,62.409-46.45,120.677-46.521c2.024-0.003,4.086,0.033,6.116,0.098c0.242,0.01,0.475,0.014,0.69,0.014l0,0
		c1.104,0,4.474,0,5.346-2.65C206.221,19.971,205.343,18.115,203.257,16.575z"/>
</g>
<g>
</g>
<g>
</g>
<g>
</g>
<g>
</g>
<g>
</g>
<g>
</g>
<g>
</g>
<g>
</g>
<g>
</g>
<g>
</g>
<g>
</g>
<g>
</g>
<g>
</g>
<g>
</g>
<g>
</g>
</svg>
