<?xml version="1.0" encoding="iso-8859-1"?>
<!-- Generator: Adobe Illustrator 16.0.0, SVG Export Plug-In . SVG Version: 6.00 Build 0)  -->
<!DOCTYPE svg PUBLIC "-//W3C//DTD SVG 1.1//EN" "http://www.w3.org/Graphics/SVG/1.1/DTD/svg11.dtd">
<svg version="1.1" id="Capa_1" xmlns="http://www.w3.org/2000/svg" xmlns:xlink="http://www.w3.org/1999/xlink" x="0px" y="0px"
	 width="125.42px" height="125.42px" viewBox="0 0 125.42 125.42" style="enable-background:new 0 0 125.42 125.42;"
	 xml:space="preserve">
<g>
	<g>
		<path id="path4780" d="M2.594,10.173c1.41,0.608,4.271,2.815,6.387,4.931c2.115,2.117,5.219,2.446,6.93,0.734
			c1.708-1.711,1.544-4.649-0.372-6.567c-1.916-1.915-4.122-4.776-4.927-6.386C9.809,1.275,7.441-0.857,5.749,0.36
			C4.733,1.086,3.739,2.111,2.961,2.887c-0.776,0.78-1.805,1.776-2.532,2.794C-0.784,7.367,1.184,9.573,2.594,10.173"/>
		<path id="path4782" d="M121.577,124.779c0.854,0.854,2.418,0.854,3.273,0c1.711-1.708-1.209-4.484-2.92-6.193l-10.15-12.288
			c-2.053-2.483-5.105-3.115-6.813-1.404c-1.711,1.71-1.109,4.79,1.35,6.884L121.577,124.779"/>
		<path id="path4784" d="M102.046,101.974c1.708-1.711,1.248-4.945-1.033-7.227L26.057,19.792c-2.279-2.277-5.516-2.743-7.224-1.03
			c-1.711,1.709-1.248,4.944,1.031,7.227l74.954,74.956C97.098,103.224,100.333,103.687,102.046,101.974"/>
	</g>
</g>
<g>
</g>
<g>
</g>
<g>
</g>
<g>
</g>
<g>
</g>
<g>
</g>
<g>
</g>
<g>
</g>
<g>
</g>
<g>
</g>
<g>
</g>
<g>
</g>
<g>
</g>
<g>
</g>
<g>
</g>
</svg>
